<svg xmlns="http://www.w3.org/2000/svg" viewBox="0 0 209.89 202.57"><defs><style>.cls-1,.cls-10,.cls-11,.cls-12,.cls-13,.cls-14,.cls-15,.cls-16,.cls-17,.cls-18,.cls-19,.cls-2,.cls-3,.cls-4,.cls-5,.cls-6,.cls-7,.cls-8,.cls-9{fill:none;stroke:#fff;stroke-linejoin:round;stroke-width:8px;}.cls-2{stroke-dasharray:13.47 20.73;}.cls-3{stroke-dasharray:10.76 16.55;}.cls-4{stroke-dasharray:10.91 16.79;}.cls-5{stroke-dasharray:13.56 20.86;}.cls-6{stroke-dasharray:8.75 13.47;}.cls-7{stroke-dasharray:12.88 19.82;}.cls-8{stroke-dasharray:16.48 25.35;}.cls-9{stroke-dasharray:16.43 25.28;}.cls-10{stroke-dasharray:12.88 19.81;}.cls-11{stroke-dasharray:8.75 13.46;}.cls-12{stroke-dasharray:12.5 19.23;}.cls-13{stroke-dasharray:12.47 19.18;}.cls-14{stroke-dasharray:13.6 20.93;}.cls-15{stroke-dasharray:12.77 19.65;}.cls-16{stroke-dasharray:13.13 20.19;}.cls-17{stroke-dasharray:13.2 20.3;}.cls-18{stroke-dasharray:12.77 19.65;}.cls-19{stroke-dasharray:13.61 20.93;}</style></defs><title>mlogoAsset 4</title><g id="Layer_2" data-name="Layer 2"><g id="Layer_2-2" data-name="Layer 2"><polyline class="cls-1" points="163.73 198.57 157.23 198.57 156.42 192.12"/><line class="cls-2" x1="153.86" y1="171.55" x2="146.67" y2="113.96"/><polyline class="cls-1" points="145.39 103.67 144.58 97.22 141.57 102.98"/><line class="cls-3" x1="133.89" y1="117.64" x2="112.41" y2="158.7"/><polyline class="cls-1" points="108.57 166.03 105.55 171.79 102.49 166.06"/><line class="cls-4" x1="94.58" y1="151.25" x2="72.42" y2="109.79"/><polyline class="cls-1" points="68.46 102.39 65.4 96.65 64.59 103.1"/><line class="cls-5" x1="62.01" y1="123.81" x2="54.78" y2="181.77"/><polyline class="cls-1" points="53.49 192.12 52.68 198.57 46.18 198.57"/><line class="cls-6" x1="32.72" y1="198.57" x2="17.23" y2="198.57"/><polyline class="cls-1" points="10.5 198.57 4 198.57 4.87 192.13"/><line class="cls-7" x1="7.5" y1="172.49" x2="27.94" y2="20.26"/><polyline class="cls-1" points="29.26 10.44 30.13 4 36.63 4"/><polyline class="cls-1" points="61.08 4 67.58 4 70.63 9.74"/><line class="cls-8" x1="82.5" y1="32.14" x2="96.16" y2="57.89"/><polyline class="cls-1" points="102.1 69.09 105.14 74.83 108.16 69.08"/><line class="cls-9" x1="119.9" y1="46.69" x2="133.4" y2="20.95"/><polyline class="cls-1" points="139.27 9.76 142.29 4 148.79 4"/><polyline class="cls-1" points="173.54 4 180.04 4 180.9 10.44"/><line class="cls-10" x1="183.51" y1="30.09" x2="203.73" y2="182.31"/><polyline class="cls-1" points="205.03 192.13 205.89 198.57 199.39 198.57"/><line class="cls-11" x1="185.93" y1="198.57" x2="170.46" y2="198.57"/><polyline class="cls-1" points="39.76 22.44 40.63 16 47.13 16"/><polyline class="cls-1" points="53.86 16 60.36 16 63.41 21.74"/><line class="cls-12" x1="72.42" y1="38.74" x2="97.65" y2="86.32"/><polyline class="cls-1" points="102.15 94.81 105.2 100.56 108.22 94.8"/><line class="cls-13" x1="117.13" y1="77.81" x2="142.07" y2="30.25"/><polyline class="cls-1" points="146.53 21.76 149.55 16 156.05 16"/><polyline class="cls-1" points="163.03 16 169.53 16 170.38 22.44"/><line class="cls-14" x1="173.14" y1="43.19" x2="189.96" y2="169.76"/><polyline class="cls-1" points="191.34 180.13 192.19 186.57 185.69 186.57"/><polyline class="cls-1" points="174.32 186.57 167.82 186.57 167.02 180.12"/><line class="cls-15" x1="164.59" y1="160.63" x2="153.76" y2="73.87"/><polyline class="cls-1" points="152.54 64.12 151.74 57.67 148.73 63.43"/><line class="cls-16" x1="139.36" y1="81.32" x2="113.14" y2="131.42"/><polyline class="cls-1" points="108.46 140.36 105.44 146.12 102.38 140.39"/><line class="cls-17" x1="92.81" y1="122.49" x2="66.02" y2="72.35"/><polyline class="cls-1" points="61.23 63.4 58.17 57.67 57.37 64.12"/><line class="cls-18" x1="54.93" y1="83.62" x2="44.11" y2="170.38"/><polyline class="cls-1" points="42.89 180.12 42.09 186.57 35.59 186.57"/><polyline class="cls-1" points="24.22 186.57 17.72 186.57 18.58 180.13"/><line class="cls-19" x1="21.37" y1="159.38" x2="38.37" y2="32.82"/><polyline class="cls-1" points="39.76 22.44 40.63 16 47.13 16"/><polyline class="cls-1" points="53.86 16 60.36 16 63.41 21.74"/><line class="cls-12" x1="72.42" y1="38.74" x2="97.65" y2="86.32"/><polyline class="cls-1" points="102.15 94.81 105.2 100.56 108.22 94.8"/><line class="cls-13" x1="117.13" y1="77.81" x2="142.07" y2="30.25"/><polyline class="cls-1" points="146.53 21.76 149.55 16 156.05 16"/><polyline class="cls-1" points="163.03 16 169.53 16 170.38 22.44"/><line class="cls-14" x1="173.14" y1="43.19" x2="189.96" y2="169.76"/><polyline class="cls-1" points="191.34 180.13 192.19 186.57 185.69 186.57"/><polyline class="cls-1" points="174.32 186.57 167.82 186.57 167.02 180.12"/><line class="cls-15" x1="164.59" y1="160.63" x2="153.76" y2="73.87"/><polyline class="cls-1" points="152.54 64.12 151.74 57.67 148.73 63.43"/><line class="cls-16" x1="139.36" y1="81.32" x2="113.14" y2="131.42"/><polyline class="cls-1" points="108.46 140.36 105.44 146.12 102.38 140.39"/><line class="cls-17" x1="92.81" y1="122.49" x2="66.02" y2="72.35"/><polyline class="cls-1" points="61.23 63.4 58.17 57.67 57.37 64.12"/><line class="cls-18" x1="54.93" y1="83.62" x2="44.11" y2="170.38"/><polyline class="cls-1" points="42.89 180.12 42.09 186.57 35.59 186.57"/><polyline class="cls-1" points="24.22 186.57 17.72 186.57 18.58 180.13"/><line class="cls-19" x1="21.37" y1="159.38" x2="38.37" y2="32.82"/></g></g></svg>