<?xml version="1.0" encoding="utf-8"?>
<!-- Generator: Adobe Illustrator 22.0.1, SVG Export Plug-In . SVG Version: 6.00 Build 0)  -->
<svg version="1.1" id="Layer_1" xmlns="http://www.w3.org/2000/svg" xmlns:xlink="http://www.w3.org/1999/xlink" x="0px" y="0px"
	 viewBox="0 0 100 100" style="enable-background:new 0 0 100 100;" xml:space="preserve">
<g id="surface1">
	<path d="M89,50.4l5.8-9.8c0.2-0.5,0.3-1,0.1-1.6L83.5,6.4c-0.4-1-1.4-1.6-2.4-1.3l-33.6,8.2c-0.6,0.2-1.2,0.6-1.4,1.2l-3.6,8.9
		H31.6c-0.6,0-1.1,0.2-1.5,0.7L5.5,50.7c-0.8,0.8-0.7,2.1,0.1,2.9l25.7,24.5c0.4,0.4,0.9,0.6,1.4,0.6h11.7l3.6,8.9
		c0.3,0.7,0.9,1.1,1.6,1.3L85.4,95c0.1,0,0.2,0,0.3,0c1,0,1.8-0.7,2-1.6L95,60.2c0.1-0.5,0-1-0.3-1.5L89,50.4z M42.5,23.4l28.8-5.3
		L56.1,48H21.7L42.5,23.4z M44.5,78.6L21.7,56.1h34.4L74,83.1L44.5,78.6z M81.5,78.4L64.3,52l15-29.8L89,50.4L81.5,78.4z"/>
</g>
</svg>
