<?xml version="1.0" encoding="utf-8"?>
<!-- Generator: Adobe Illustrator 22.0.1, SVG Export Plug-In . SVG Version: 6.00 Build 0)  -->
<svg version="1.1" id="Layer_1" xmlns="http://www.w3.org/2000/svg" xmlns:xlink="http://www.w3.org/1999/xlink" x="0px" y="0px"
	 viewBox="0 0 1150 180" style="enable-background:new 0 0 1150 180;" xml:space="preserve">
<g>
	<g>
		<g>
			<circle cx="1120.3" cy="163.1" r="6.8"/>
		</g>
		<g>
			<circle cx="1100.3" cy="163.1" r="6.8"/>
		</g>
		<g>
			<circle cx="1080.3" cy="163.1" r="6.8"/>
		</g>
		<g>
			<circle cx="1060.3" cy="163.1" r="6.8"/>
		</g>
		<g>
			<circle cx="1040.3" cy="163.1" r="6.8"/>
		</g>
		<g>
			<circle cx="1020.3" cy="163.1" r="6.8"/>
		</g>
		<g>
			<circle cx="1000.3" cy="163.1" r="6.8"/>
		</g>
		<g>
			<circle cx="980.3" cy="163.1" r="6.8"/>
		</g>
		<g>
			<circle cx="960.3" cy="163.1" r="6.8"/>
		</g>
		<g>
			<circle cx="940.3" cy="163.1" r="6.8"/>
		</g>
		<g>
			<circle cx="920.3" cy="163.1" r="6.8"/>
		</g>
		<g>
			<circle cx="900.3" cy="163.1" r="6.8"/>
		</g>
		<g>
			<circle cx="880.3" cy="163.1" r="6.8"/>
		</g>
		<g>
			<circle cx="860.3" cy="163.1" r="6.8"/>
		</g>
		<g>
			<circle cx="840.3" cy="163.1" r="6.8"/>
		</g>
		<g>
			<circle cx="820.3" cy="163.1" r="6.8"/>
		</g>
		<g>
			<circle cx="800.3" cy="163.1" r="6.8"/>
		</g>
		<g>
			<circle cx="780.3" cy="163.1" r="6.8"/>
		</g>
		<g>
			<circle cx="760.3" cy="163.1" r="6.8"/>
		</g>
		<g>
			<circle cx="740.3" cy="163.1" r="6.8"/>
		</g>
		<g>
			<circle cx="720.3" cy="163.1" r="6.8"/>
		</g>
		<g>
			<circle cx="700.3" cy="163.1" r="6.8"/>
		</g>
		<g>
			<circle cx="680.3" cy="163.1" r="6.8"/>
		</g>
		<g>
			<circle cx="660.3" cy="163.1" r="6.8"/>
		</g>
		<g>
			<circle cx="640.3" cy="163.1" r="6.8"/>
		</g>
		<g>
			<circle cx="620.3" cy="163.1" r="6.8"/>
		</g>
		<g>
			<circle cx="600.3" cy="163.1" r="6.8"/>
		</g>
		<g>
			<circle cx="580.3" cy="163.1" r="6.8"/>
		</g>
		<g>
			<circle cx="560.3" cy="163.1" r="6.8"/>
		</g>
		<g>
			<circle cx="540.3" cy="163.1" r="6.8"/>
		</g>
		<g>
			<circle cx="520.3" cy="163.1" r="6.8"/>
		</g>
		<g>
			<circle cx="500.3" cy="163.1" r="6.8"/>
		</g>
		<g>
			<circle cx="480.3" cy="163.1" r="6.8"/>
		</g>
		<g>
			<circle cx="460.3" cy="163.1" r="6.8"/>
		</g>
		<g>
			<circle cx="440.3" cy="163.1" r="6.8"/>
		</g>
		<g>
			<circle cx="420.3" cy="163.1" r="6.8"/>
		</g>
		<g>
			<circle cx="400.3" cy="163.1" r="6.8"/>
		</g>
		<g>
			<circle cx="380.3" cy="163.1" r="6.8"/>
		</g>
		<g>
			<circle cx="360.3" cy="163.1" r="6.8"/>
		</g>
		<g>
			<circle cx="340.3" cy="163.1" r="6.8"/>
		</g>
		<g>
			<circle cx="320.3" cy="163.1" r="6.8"/>
		</g>
		<g>
			<circle cx="300.3" cy="163.1" r="6.8"/>
		</g>
		<g>
			<circle cx="280.3" cy="163.1" r="6.8"/>
		</g>
		<g>
			<circle cx="260.3" cy="163.1" r="6.8"/>
		</g>
		<g>
			<circle cx="240.3" cy="163.1" r="6.8"/>
		</g>
		<g>
			<circle cx="220.3" cy="163.1" r="6.8"/>
		</g>
		<g>
			<circle cx="200.3" cy="163.1" r="6.8"/>
		</g>
		<g>
			<circle cx="180.3" cy="163.1" r="6.8"/>
		</g>
		<g>
			<circle cx="160.3" cy="163.1" r="6.8"/>
		</g>
		<g>
			<circle cx="140.3" cy="163.1" r="6.8"/>
		</g>
		<g>
			<circle cx="120.3" cy="163.1" r="6.8"/>
		</g>
		<g>
			<circle cx="100.3" cy="163.1" r="6.8"/>
		</g>
		<g>
			<circle cx="80.3" cy="163.1" r="6.8"/>
		</g>
		<g>
			<circle cx="60.3" cy="163.1" r="6.8"/>
		</g>
		<g>
			<circle cx="40.3" cy="163.1" r="6.8"/>
		</g>
		<g>
			<circle cx="20.3" cy="163.1" r="6.8"/>
		</g>
	</g>
	<g>
		<g>
			<circle cx="1120.3" cy="144.6" r="6.8"/>
		</g>
		<g>
			<circle cx="1100.3" cy="144.6" r="6.8"/>
		</g>
		<g>
			<circle cx="1080.3" cy="144.6" r="6.8"/>
		</g>
		<g>
			<circle cx="1060.3" cy="144.6" r="6.8"/>
		</g>
		<g>
			<circle cx="1040.3" cy="144.6" r="6.8"/>
		</g>
		<g>
			<circle cx="1020.3" cy="144.6" r="6.8"/>
		</g>
		<g>
			<circle cx="1000.3" cy="144.6" r="6.8"/>
		</g>
		<g>
			<circle cx="980.3" cy="144.6" r="6.8"/>
		</g>
		<g>
			<circle cx="960.3" cy="144.6" r="6.8"/>
		</g>
		<g>
			<circle cx="940.3" cy="144.6" r="6.8"/>
		</g>
		<g>
			<circle cx="920.3" cy="144.6" r="6.8"/>
		</g>
		<g>
			<circle cx="900.3" cy="144.6" r="6.8"/>
		</g>
		<g>
			<circle cx="880.3" cy="144.6" r="6.8"/>
		</g>
		<g>
			<circle cx="860.3" cy="144.6" r="6.8"/>
		</g>
		<g>
			<circle cx="840.3" cy="144.6" r="6.8"/>
		</g>
		<g>
			<circle cx="820.3" cy="144.6" r="6.8"/>
		</g>
		<g>
			<circle cx="800.3" cy="144.6" r="6.8"/>
		</g>
		<g>
			<circle cx="780.3" cy="144.6" r="6.8"/>
		</g>
		<g>
			<circle cx="760.3" cy="144.6" r="6.8"/>
		</g>
		<g>
			<circle cx="740.3" cy="144.6" r="6.8"/>
		</g>
		<g>
			<circle cx="720.3" cy="144.6" r="6.8"/>
		</g>
		<g>
			<circle cx="700.3" cy="144.6" r="6.8"/>
		</g>
		<g>
			<circle cx="680.3" cy="144.6" r="6.8"/>
		</g>
		<g>
			<circle cx="660.3" cy="144.6" r="6.8"/>
		</g>
		<g>
			<circle cx="640.3" cy="144.6" r="6.8"/>
		</g>
		<g>
			<circle cx="620.3" cy="144.6" r="6.8"/>
		</g>
		<g>
			<circle cx="600.3" cy="144.6" r="6.8"/>
		</g>
		<g>
			<circle cx="580.3" cy="144.6" r="6.8"/>
		</g>
		<g>
			<circle cx="560.3" cy="144.6" r="6.8"/>
		</g>
		<g>
			<circle cx="540.3" cy="144.6" r="6.8"/>
		</g>
		<g>
			<circle cx="520.3" cy="144.6" r="6.8"/>
		</g>
		<g>
			<circle cx="500.3" cy="144.6" r="6.8"/>
		</g>
		<g>
			<circle cx="480.3" cy="144.6" r="6.8"/>
		</g>
		<g>
			<circle cx="460.3" cy="144.6" r="6.8"/>
		</g>
		<g>
			<circle cx="440.3" cy="144.6" r="6.8"/>
		</g>
		<g>
			<circle cx="420.3" cy="144.6" r="6.8"/>
		</g>
		<g>
			<circle cx="400.3" cy="144.6" r="6.8"/>
		</g>
		<g>
			<circle cx="380.3" cy="144.6" r="6.8"/>
		</g>
		<g>
			<circle cx="360.3" cy="144.6" r="6.8"/>
		</g>
		<g>
			<circle cx="340.3" cy="144.6" r="6.8"/>
		</g>
		<g>
			<circle cx="320.3" cy="144.6" r="6.8"/>
		</g>
		<g>
			<circle cx="300.3" cy="144.6" r="6.8"/>
		</g>
		<g>
			<circle cx="280.3" cy="144.6" r="6.8"/>
		</g>
		<g>
			<circle cx="260.3" cy="144.6" r="6.8"/>
		</g>
		<g>
			<circle cx="240.3" cy="144.6" r="6.8"/>
		</g>
		<g>
			<circle cx="220.3" cy="144.6" r="6.8"/>
		</g>
		<g>
			<circle cx="200.3" cy="144.6" r="6.8"/>
		</g>
		<g>
			<circle cx="180.3" cy="144.6" r="6.8"/>
		</g>
		<g>
			<circle cx="160.3" cy="144.6" r="6.8"/>
		</g>
		<g>
			<circle cx="140.3" cy="144.6" r="6.8"/>
		</g>
		<g>
			<circle cx="120.3" cy="144.6" r="6.8"/>
		</g>
		<g>
			<circle cx="100.3" cy="144.6" r="6.8"/>
		</g>
		<g>
			<circle cx="80.3" cy="144.6" r="6.8"/>
		</g>
		<g>
			<circle cx="60.3" cy="144.6" r="6.8"/>
		</g>
		<g>
			<circle cx="40.3" cy="144.6" r="6.8"/>
		</g>
		<g>
			<circle cx="20.3" cy="144.6" r="6.8"/>
		</g>
	</g>
	<g>
		<g>
			<circle cx="1120.3" cy="126.1" r="6.8"/>
		</g>
		<g>
			<circle cx="1100.3" cy="126.1" r="6.8"/>
		</g>
		<g>
			<circle cx="1080.3" cy="126.1" r="6.8"/>
		</g>
		<g>
			<circle cx="1060.3" cy="126.1" r="6.8"/>
		</g>
		<g>
			<circle cx="1040.3" cy="126.1" r="6.8"/>
		</g>
		<g>
			<circle cx="1020.3" cy="126.1" r="6.8"/>
		</g>
		<g>
			<circle cx="1000.3" cy="126.1" r="6.8"/>
		</g>
		<g>
			<circle cx="980.3" cy="126.1" r="6.8"/>
		</g>
		<g>
			<circle cx="960.3" cy="126.1" r="6.8"/>
		</g>
		<g>
			<circle cx="940.3" cy="126.1" r="6.8"/>
		</g>
		<g>
			<circle cx="920.3" cy="126.1" r="6.8"/>
		</g>
		<g>
			<circle cx="900.3" cy="126.1" r="6.8"/>
		</g>
		<g>
			<circle cx="880.3" cy="126.1" r="6.8"/>
		</g>
		<g>
			<circle cx="860.3" cy="126.1" r="6.8"/>
		</g>
		<g>
			<circle cx="840.3" cy="126.1" r="6.8"/>
		</g>
		<g>
			<circle cx="820.3" cy="126.1" r="6.8"/>
		</g>
		<g>
			<circle cx="800.3" cy="126.1" r="6.8"/>
		</g>
		<g>
			<circle cx="780.3" cy="126.1" r="6.8"/>
		</g>
		<g>
			<circle cx="760.3" cy="126.1" r="6.8"/>
		</g>
		<g>
			<circle cx="740.3" cy="126.1" r="6.8"/>
		</g>
		<g>
			<circle cx="720.3" cy="126.1" r="6.8"/>
		</g>
		<g>
			<circle cx="700.3" cy="126.1" r="6.8"/>
		</g>
		<g>
			<circle cx="680.3" cy="126.1" r="6.8"/>
		</g>
		<g>
			<circle cx="660.3" cy="126.1" r="6.8"/>
		</g>
		<g>
			<circle cx="640.3" cy="126.1" r="6.8"/>
		</g>
		<g>
			<circle cx="620.3" cy="126.1" r="6.8"/>
		</g>
		<g>
			<circle cx="600.3" cy="126.1" r="6.8"/>
		</g>
		<g>
			<circle cx="580.3" cy="126.1" r="6.8"/>
		</g>
		<g>
			<circle cx="560.3" cy="126.1" r="6.8"/>
		</g>
		<g>
			<circle cx="540.3" cy="126.1" r="6.8"/>
		</g>
		<g>
			<circle cx="520.3" cy="126.1" r="6.8"/>
		</g>
		<g>
			<circle cx="500.3" cy="126.1" r="6.8"/>
		</g>
		<g>
			<circle cx="480.3" cy="126.1" r="6.8"/>
		</g>
		<g>
			<circle cx="460.3" cy="126.1" r="6.8"/>
		</g>
		<g>
			<circle cx="440.3" cy="126.1" r="6.8"/>
		</g>
		<g>
			<circle cx="420.3" cy="126.1" r="6.8"/>
		</g>
		<g>
			<circle cx="400.3" cy="126.1" r="6.8"/>
		</g>
		<g>
			<circle cx="380.3" cy="126.1" r="6.8"/>
		</g>
		<g>
			<circle cx="360.3" cy="126.1" r="6.8"/>
		</g>
		<g>
			<circle cx="340.3" cy="126.1" r="6.8"/>
		</g>
		<g>
			<circle cx="320.3" cy="126.1" r="6.8"/>
		</g>
		<g>
			<circle cx="300.3" cy="126.1" r="6.8"/>
		</g>
		<g>
			<circle cx="280.3" cy="126.1" r="6.8"/>
		</g>
		<g>
			<circle cx="260.3" cy="126.1" r="6.8"/>
		</g>
		<g>
			<circle cx="240.3" cy="126.1" r="6.8"/>
		</g>
		<g>
			<circle cx="220.3" cy="126.1" r="6.8"/>
		</g>
		<g>
			<circle cx="200.3" cy="126.1" r="6.8"/>
		</g>
		<g>
			<circle cx="180.3" cy="126.1" r="6.8"/>
		</g>
		<g>
			<circle cx="160.3" cy="126.1" r="6.8"/>
		</g>
		<g>
			<circle cx="140.3" cy="126.1" r="6.8"/>
		</g>
		<g>
			<circle cx="120.3" cy="126.1" r="6.8"/>
		</g>
		<g>
			<circle cx="100.3" cy="126.1" r="6.8"/>
		</g>
		<g>
			<circle cx="80.3" cy="126.1" r="6.8"/>
		</g>
		<g>
			<circle cx="60.3" cy="126.1" r="6.8"/>
		</g>
		<g>
			<circle cx="40.3" cy="126.1" r="6.8"/>
		</g>
		<g>
			<circle cx="20.3" cy="126.1" r="6.8"/>
		</g>
	</g>
	<g>
		<g>
			<circle cx="1120.3" cy="107.6" r="6.8"/>
		</g>
		<g>
			<circle cx="1100.3" cy="107.6" r="6.8"/>
		</g>
		<g>
			<circle cx="1080.3" cy="107.6" r="6.8"/>
		</g>
		<g>
			<circle cx="1060.3" cy="107.6" r="6.8"/>
		</g>
		<g>
			<circle cx="1040.3" cy="107.6" r="6.8"/>
		</g>
		<g>
			<circle cx="1020.3" cy="107.6" r="6.8"/>
		</g>
		<g>
			<circle cx="1000.3" cy="107.6" r="6.8"/>
		</g>
		<g>
			<circle cx="980.3" cy="107.6" r="6.8"/>
		</g>
		<g>
			<circle cx="960.3" cy="107.6" r="6.8"/>
		</g>
		<g>
			<circle cx="940.3" cy="107.6" r="6.8"/>
		</g>
		<g>
			<circle cx="920.3" cy="107.6" r="6.8"/>
		</g>
		<g>
			<circle cx="900.3" cy="107.6" r="6.8"/>
		</g>
		<g>
			<circle cx="880.3" cy="107.6" r="6.8"/>
		</g>
		<g>
			<circle cx="860.3" cy="107.6" r="6.8"/>
		</g>
		<g>
			<circle cx="840.3" cy="107.6" r="6.8"/>
		</g>
		<g>
			<circle cx="820.3" cy="107.6" r="6.8"/>
		</g>
		<g>
			<circle cx="800.3" cy="107.6" r="6.8"/>
		</g>
		<g>
			<circle cx="780.3" cy="107.6" r="6.8"/>
		</g>
		<g>
			<circle cx="760.3" cy="107.6" r="6.8"/>
		</g>
		<g>
			<circle cx="740.3" cy="107.6" r="6.8"/>
		</g>
		<g>
			<circle cx="720.3" cy="107.6" r="6.8"/>
		</g>
		<g>
			<circle cx="700.3" cy="107.6" r="6.8"/>
		</g>
		<g>
			<circle cx="680.3" cy="107.6" r="6.8"/>
		</g>
		<g>
			<circle cx="660.3" cy="107.6" r="6.8"/>
		</g>
		<g>
			<circle cx="640.3" cy="107.6" r="6.8"/>
		</g>
		<g>
			<circle cx="620.3" cy="107.6" r="6.8"/>
		</g>
		<g>
			<circle cx="600.3" cy="107.6" r="6.8"/>
		</g>
		<g>
			<circle cx="580.3" cy="107.6" r="6.8"/>
		</g>
		<g>
			<circle cx="560.3" cy="107.6" r="6.8"/>
		</g>
		<g>
			<circle cx="540.3" cy="107.6" r="6.8"/>
		</g>
		<g>
			<circle cx="520.3" cy="107.6" r="6.8"/>
		</g>
		<g>
			<circle cx="500.3" cy="107.6" r="6.8"/>
		</g>
		<g>
			<circle cx="480.3" cy="107.6" r="6.8"/>
		</g>
		<g>
			<circle cx="460.3" cy="107.6" r="6.8"/>
		</g>
		<g>
			<circle cx="440.3" cy="107.6" r="6.8"/>
		</g>
		<g>
			<circle cx="420.3" cy="107.6" r="6.8"/>
		</g>
		<g>
			<circle cx="400.3" cy="107.6" r="6.8"/>
		</g>
		<g>
			<circle cx="380.3" cy="107.6" r="6.8"/>
		</g>
		<g>
			<circle cx="360.3" cy="107.6" r="6.8"/>
		</g>
		<g>
			<circle cx="340.3" cy="107.6" r="6.8"/>
		</g>
		<g>
			<circle cx="320.3" cy="107.6" r="6.8"/>
		</g>
		<g>
			<circle cx="300.3" cy="107.6" r="6.8"/>
		</g>
		<g>
			<circle cx="280.3" cy="107.6" r="6.8"/>
		</g>
		<g>
			<circle cx="260.3" cy="107.6" r="6.8"/>
		</g>
		<g>
			<circle cx="240.3" cy="107.6" r="6.8"/>
		</g>
		<g>
			<circle cx="220.3" cy="107.6" r="6.8"/>
		</g>
		<g>
			<circle cx="200.3" cy="107.6" r="6.8"/>
		</g>
		<g>
			<circle cx="180.3" cy="107.6" r="6.8"/>
		</g>
		<g>
			<circle cx="160.3" cy="107.6" r="6.8"/>
		</g>
		<g>
			<circle cx="140.3" cy="107.6" r="6.8"/>
		</g>
		<g>
			<circle cx="120.3" cy="107.6" r="6.8"/>
		</g>
		<g>
			<circle cx="100.3" cy="107.6" r="6.8"/>
		</g>
		<g>
			<circle cx="80.3" cy="107.6" r="6.8"/>
		</g>
		<g>
			<circle cx="60.3" cy="107.6" r="6.8"/>
		</g>
		<g>
			<circle cx="40.3" cy="107.6" r="6.8"/>
		</g>
		<g>
			<circle cx="20.3" cy="107.6" r="6.8"/>
		</g>
	</g>
	<g>
		<g>
			<circle cx="1120.3" cy="89.1" r="6.8"/>
		</g>
		<g>
			<circle cx="1100.3" cy="89.1" r="6.8"/>
		</g>
		<g>
			<circle cx="1080.3" cy="89.1" r="6.8"/>
		</g>
		<g>
			<circle cx="1060.3" cy="89.1" r="6.8"/>
		</g>
		<g>
			<circle cx="1040.3" cy="89.1" r="6.8"/>
		</g>
		<g>
			<circle cx="1020.3" cy="89.1" r="6.8"/>
		</g>
		<g>
			<circle cx="1000.3" cy="89.1" r="6.8"/>
		</g>
		<g>
			<circle cx="980.3" cy="89.1" r="6.8"/>
		</g>
		<g>
			<circle cx="960.3" cy="89.1" r="6.8"/>
		</g>
		<g>
			<circle cx="940.3" cy="89.1" r="6.8"/>
		</g>
		<g>
			<circle cx="920.3" cy="89.1" r="6.8"/>
		</g>
		<g>
			<circle cx="900.3" cy="89.1" r="6.8"/>
		</g>
		<g>
			<circle cx="880.3" cy="89.1" r="6.8"/>
		</g>
		<g>
			<circle cx="860.3" cy="89.1" r="6.8"/>
		</g>
		<g>
			<circle cx="840.3" cy="89.1" r="6.8"/>
		</g>
		<g>
			<circle cx="820.3" cy="89.1" r="6.8"/>
		</g>
		<g>
			<circle cx="800.3" cy="89.1" r="6.8"/>
		</g>
		<g>
			<circle cx="780.3" cy="89.1" r="6.8"/>
		</g>
		<g>
			<circle cx="760.3" cy="89.1" r="6.8"/>
		</g>
		<g>
			<circle cx="740.3" cy="89.1" r="6.8"/>
		</g>
		<g>
			<circle cx="720.3" cy="89.1" r="6.8"/>
		</g>
		<g>
			<circle cx="700.3" cy="89.1" r="6.8"/>
		</g>
		<g>
			<circle cx="680.3" cy="89.1" r="6.8"/>
		</g>
		<g>
			<circle cx="660.3" cy="89.1" r="6.8"/>
		</g>
		<g>
			<circle cx="640.3" cy="89.1" r="6.8"/>
		</g>
		<g>
			<circle cx="620.3" cy="89.1" r="6.8"/>
		</g>
		<g>
			<circle cx="600.3" cy="89.1" r="6.8"/>
		</g>
		<g>
			<circle cx="580.3" cy="89.1" r="6.8"/>
		</g>
		<g>
			<circle cx="560.3" cy="89.1" r="6.8"/>
		</g>
		<g>
			<circle cx="540.3" cy="89.1" r="6.8"/>
		</g>
		<g>
			<circle cx="520.3" cy="89.1" r="6.8"/>
		</g>
		<g>
			<circle cx="500.3" cy="89.1" r="6.8"/>
		</g>
		<g>
			<circle cx="480.3" cy="89.1" r="6.8"/>
		</g>
		<g>
			<circle cx="460.3" cy="89.1" r="6.8"/>
		</g>
		<g>
			<circle cx="440.3" cy="89.1" r="6.8"/>
		</g>
		<g>
			<circle cx="420.3" cy="89.1" r="6.8"/>
		</g>
		<g>
			<circle cx="400.3" cy="89.1" r="6.8"/>
		</g>
		<g>
			<circle cx="380.3" cy="89.1" r="6.8"/>
		</g>
		<g>
			<circle cx="360.3" cy="89.1" r="6.8"/>
		</g>
		<g>
			<circle cx="340.3" cy="89.1" r="6.8"/>
		</g>
		<g>
			<circle cx="320.3" cy="89.1" r="6.8"/>
		</g>
		<g>
			<circle cx="300.3" cy="89.1" r="6.8"/>
		</g>
		<g>
			<circle cx="280.3" cy="89.1" r="6.8"/>
		</g>
		<g>
			<circle cx="260.3" cy="89.1" r="6.8"/>
		</g>
		<g>
			<circle cx="240.3" cy="89.1" r="6.8"/>
		</g>
		<g>
			<circle cx="220.3" cy="89.1" r="6.8"/>
		</g>
		<g>
			<circle cx="200.3" cy="89.1" r="6.8"/>
		</g>
		<g>
			<circle cx="180.3" cy="89.1" r="6.8"/>
		</g>
		<g>
			<circle cx="160.3" cy="89.1" r="6.8"/>
		</g>
		<g>
			<circle cx="140.3" cy="89.1" r="6.8"/>
		</g>
		<g>
			<circle cx="120.3" cy="89.1" r="6.8"/>
		</g>
		<g>
			<circle cx="100.3" cy="89.1" r="6.8"/>
		</g>
		<g>
			<circle cx="80.3" cy="89.1" r="6.8"/>
		</g>
		<g>
			<circle cx="60.3" cy="89.1" r="6.8"/>
		</g>
		<g>
			<circle cx="40.3" cy="89.1" r="6.8"/>
		</g>
		<g>
			<circle cx="20.3" cy="89.1" r="6.8"/>
		</g>
	</g>
	<g>
		<g>
			<circle cx="1120.3" cy="70.6" r="6.8"/>
		</g>
		<g>
			<circle cx="1100.3" cy="70.6" r="6.8"/>
		</g>
		<g>
			<circle cx="1080.3" cy="70.6" r="6.8"/>
		</g>
		<g>
			<circle cx="1060.3" cy="70.6" r="6.8"/>
		</g>
		<g>
			<circle cx="1040.3" cy="70.6" r="6.8"/>
		</g>
		<g>
			<circle cx="1020.3" cy="70.6" r="6.8"/>
		</g>
		<g>
			<circle cx="1000.3" cy="70.6" r="6.8"/>
		</g>
		<g>
			<circle cx="980.3" cy="70.6" r="6.8"/>
		</g>
		<g>
			<circle cx="960.3" cy="70.6" r="6.8"/>
		</g>
		<g>
			<circle cx="940.3" cy="70.6" r="6.8"/>
		</g>
		<g>
			<circle cx="920.3" cy="70.6" r="6.8"/>
		</g>
		<g>
			<circle cx="900.3" cy="70.6" r="6.8"/>
		</g>
		<g>
			<circle cx="880.3" cy="70.6" r="6.8"/>
		</g>
		<g>
			<circle cx="860.3" cy="70.6" r="6.8"/>
		</g>
		<g>
			<circle cx="840.3" cy="70.6" r="6.8"/>
		</g>
		<g>
			<circle cx="820.3" cy="70.6" r="6.8"/>
		</g>
		<g>
			<circle cx="800.3" cy="70.6" r="6.8"/>
		</g>
		<g>
			<circle cx="780.3" cy="70.6" r="6.8"/>
		</g>
		<g>
			<circle cx="760.3" cy="70.6" r="6.8"/>
		</g>
		<g>
			<circle cx="740.3" cy="70.6" r="6.8"/>
		</g>
		<g>
			<circle cx="720.3" cy="70.6" r="6.8"/>
		</g>
		<g>
			<circle cx="700.3" cy="70.6" r="6.8"/>
		</g>
		<g>
			<circle cx="680.3" cy="70.6" r="6.8"/>
		</g>
		<g>
			<circle cx="660.3" cy="70.6" r="6.8"/>
		</g>
		<g>
			<circle cx="640.3" cy="70.6" r="6.8"/>
		</g>
		<g>
			<circle cx="620.3" cy="70.6" r="6.8"/>
		</g>
		<g>
			<circle cx="600.3" cy="70.6" r="6.8"/>
		</g>
		<g>
			<circle cx="580.3" cy="70.6" r="6.8"/>
		</g>
		<g>
			<circle cx="560.3" cy="70.6" r="6.8"/>
		</g>
		<g>
			<circle cx="540.3" cy="70.6" r="6.8"/>
		</g>
		<g>
			<circle cx="520.3" cy="70.6" r="6.8"/>
		</g>
		<g>
			<circle cx="500.3" cy="70.6" r="6.8"/>
		</g>
		<g>
			<circle cx="480.3" cy="70.6" r="6.8"/>
		</g>
		<g>
			<circle cx="460.3" cy="70.6" r="6.8"/>
		</g>
		<g>
			<circle cx="440.3" cy="70.6" r="6.8"/>
		</g>
		<g>
			<circle cx="420.3" cy="70.6" r="6.8"/>
		</g>
		<g>
			<circle cx="400.3" cy="70.6" r="6.8"/>
		</g>
		<g>
			<circle cx="380.3" cy="70.6" r="6.8"/>
		</g>
		<g>
			<circle cx="360.3" cy="70.6" r="6.8"/>
		</g>
		<g>
			<circle cx="340.3" cy="70.6" r="6.8"/>
		</g>
		<g>
			<circle cx="320.3" cy="70.6" r="6.8"/>
		</g>
		<g>
			<circle cx="300.3" cy="70.6" r="6.8"/>
		</g>
		<g>
			<circle cx="280.3" cy="70.6" r="6.8"/>
		</g>
		<g>
			<circle cx="260.3" cy="70.6" r="6.8"/>
		</g>
		<g>
			<circle cx="240.3" cy="70.6" r="6.8"/>
		</g>
		<g>
			<circle cx="220.3" cy="70.6" r="6.8"/>
		</g>
		<g>
			<circle cx="200.3" cy="70.6" r="6.8"/>
		</g>
		<g>
			<circle cx="180.3" cy="70.6" r="6.8"/>
		</g>
		<g>
			<circle cx="160.3" cy="70.6" r="6.8"/>
		</g>
		<g>
			<circle cx="140.3" cy="70.6" r="6.8"/>
		</g>
		<g>
			<circle cx="120.3" cy="70.6" r="6.8"/>
		</g>
		<g>
			<circle cx="100.3" cy="70.6" r="6.8"/>
		</g>
		<g>
			<circle cx="80.3" cy="70.6" r="6.8"/>
		</g>
		<g>
			<circle cx="60.3" cy="70.6" r="6.8"/>
		</g>
		<g>
			<circle cx="40.3" cy="70.6" r="6.8"/>
		</g>
		<g>
			<circle cx="20.3" cy="70.6" r="6.8"/>
		</g>
	</g>
	<g>
		<g>
			<circle cx="1120.3" cy="52.1" r="6.8"/>
		</g>
		<g>
			<circle cx="1100.3" cy="52.1" r="6.8"/>
		</g>
		<g>
			<circle cx="1080.3" cy="52.1" r="6.8"/>
		</g>
		<g>
			<circle cx="1060.3" cy="52.1" r="6.8"/>
		</g>
		<g>
			<circle cx="1040.3" cy="52.1" r="6.8"/>
		</g>
		<g>
			<circle cx="1020.3" cy="52.1" r="6.8"/>
		</g>
		<g>
			<circle cx="1000.3" cy="52.1" r="6.8"/>
		</g>
		<g>
			<circle cx="980.3" cy="52.1" r="6.8"/>
		</g>
		<g>
			<circle cx="960.3" cy="52.1" r="6.8"/>
		</g>
		<g>
			<circle cx="940.3" cy="52.1" r="6.8"/>
		</g>
		<g>
			<circle cx="920.3" cy="52.1" r="6.8"/>
		</g>
		<g>
			<circle cx="900.3" cy="52.1" r="6.8"/>
		</g>
		<g>
			<circle cx="880.3" cy="52.1" r="6.8"/>
		</g>
		<g>
			<circle cx="860.3" cy="52.1" r="6.8"/>
		</g>
		<g>
			<circle cx="840.3" cy="52.1" r="6.8"/>
		</g>
		<g>
			<circle cx="820.3" cy="52.1" r="6.8"/>
		</g>
		<g>
			<circle cx="800.3" cy="52.1" r="6.8"/>
		</g>
		<g>
			<circle cx="780.3" cy="52.1" r="6.8"/>
		</g>
		<g>
			<circle cx="760.3" cy="52.1" r="6.8"/>
		</g>
		<g>
			<circle cx="740.3" cy="52.1" r="6.8"/>
		</g>
		<g>
			<circle cx="720.3" cy="52.1" r="6.8"/>
		</g>
		<g>
			<circle cx="700.3" cy="52.1" r="6.8"/>
		</g>
		<g>
			<circle cx="680.3" cy="52.1" r="6.8"/>
		</g>
		<g>
			<circle cx="660.3" cy="52.1" r="6.8"/>
		</g>
		<g>
			<circle cx="640.3" cy="52.1" r="6.8"/>
		</g>
		<g>
			<circle cx="620.3" cy="52.1" r="6.8"/>
		</g>
		<g>
			<circle cx="600.3" cy="52.1" r="6.8"/>
		</g>
		<g>
			<circle cx="580.3" cy="52.1" r="6.8"/>
		</g>
		<g>
			<circle cx="560.3" cy="52.1" r="6.8"/>
		</g>
		<g>
			<circle cx="540.3" cy="52.1" r="6.8"/>
		</g>
		<g>
			<circle cx="520.3" cy="52.1" r="6.8"/>
		</g>
		<g>
			<circle cx="500.3" cy="52.1" r="6.8"/>
		</g>
		<g>
			<circle cx="480.3" cy="52.1" r="6.8"/>
		</g>
		<g>
			<circle cx="460.3" cy="52.1" r="6.8"/>
		</g>
		<g>
			<circle cx="440.3" cy="52.1" r="6.8"/>
		</g>
		<g>
			<circle cx="420.3" cy="52.1" r="6.8"/>
		</g>
		<g>
			<circle cx="400.3" cy="52.1" r="6.8"/>
		</g>
		<g>
			<circle cx="380.3" cy="52.1" r="6.8"/>
		</g>
		<g>
			<circle cx="360.3" cy="52.1" r="6.8"/>
		</g>
		<g>
			<circle cx="340.3" cy="52.1" r="6.8"/>
		</g>
		<g>
			<circle cx="320.3" cy="52.1" r="6.8"/>
		</g>
		<g>
			<circle cx="300.3" cy="52.1" r="6.8"/>
		</g>
		<g>
			<circle cx="280.3" cy="52.1" r="6.8"/>
		</g>
		<g>
			<circle cx="260.3" cy="52.1" r="6.8"/>
		</g>
		<g>
			<circle cx="240.3" cy="52.1" r="6.8"/>
		</g>
		<g>
			<circle cx="220.3" cy="52.1" r="6.8"/>
		</g>
		<g>
			<circle cx="200.3" cy="52.1" r="6.8"/>
		</g>
		<g>
			<circle cx="180.3" cy="52.1" r="6.8"/>
		</g>
		<g>
			<circle cx="160.3" cy="52.1" r="6.8"/>
		</g>
		<g>
			<circle cx="140.3" cy="52.1" r="6.8"/>
		</g>
		<g>
			<circle cx="120.3" cy="52.1" r="6.8"/>
		</g>
		<g>
			<circle cx="100.3" cy="52.1" r="6.8"/>
		</g>
		<g>
			<circle cx="80.3" cy="52.1" r="6.8"/>
		</g>
		<g>
			<circle cx="60.3" cy="52.1" r="6.8"/>
		</g>
		<g>
			<circle cx="40.3" cy="52.1" r="6.8"/>
		</g>
		<g>
			<circle cx="20.3" cy="52.1" r="6.8"/>
		</g>
	</g>
	<g>
		<g>
			<circle cx="1120.3" cy="33.6" r="6.8"/>
		</g>
		<g>
			<circle cx="1100.3" cy="33.6" r="6.8"/>
		</g>
		<g>
			<circle cx="1080.3" cy="33.6" r="6.8"/>
		</g>
		<g>
			<circle cx="1060.3" cy="33.6" r="6.8"/>
		</g>
		<g>
			<circle cx="1040.3" cy="33.6" r="6.8"/>
		</g>
		<g>
			<circle cx="1020.3" cy="33.6" r="6.8"/>
		</g>
		<g>
			<circle cx="1000.3" cy="33.6" r="6.8"/>
		</g>
		<g>
			<circle cx="980.3" cy="33.6" r="6.8"/>
		</g>
		<g>
			<circle cx="960.3" cy="33.6" r="6.8"/>
		</g>
		<g>
			<circle cx="940.3" cy="33.6" r="6.8"/>
		</g>
		<g>
			<circle cx="920.3" cy="33.6" r="6.8"/>
		</g>
		<g>
			<circle cx="900.3" cy="33.6" r="6.8"/>
		</g>
		<g>
			<circle cx="880.3" cy="33.6" r="6.8"/>
		</g>
		<g>
			<circle cx="860.3" cy="33.6" r="6.8"/>
		</g>
		<g>
			<circle cx="840.3" cy="33.6" r="6.8"/>
		</g>
		<g>
			<circle cx="820.3" cy="33.6" r="6.8"/>
		</g>
		<g>
			<circle cx="800.3" cy="33.6" r="6.8"/>
		</g>
		<g>
			<circle cx="780.3" cy="33.6" r="6.8"/>
		</g>
		<g>
			<circle cx="760.3" cy="33.6" r="6.8"/>
		</g>
		<g>
			<circle cx="740.3" cy="33.6" r="6.8"/>
		</g>
		<g>
			<circle cx="720.3" cy="33.6" r="6.8"/>
		</g>
		<g>
			<circle cx="700.3" cy="33.6" r="6.8"/>
		</g>
		<g>
			<circle cx="680.3" cy="33.6" r="6.8"/>
		</g>
		<g>
			<circle cx="660.3" cy="33.6" r="6.8"/>
		</g>
		<g>
			<circle cx="640.3" cy="33.6" r="6.8"/>
		</g>
		<g>
			<circle cx="620.3" cy="33.6" r="6.8"/>
		</g>
		<g>
			<circle cx="600.3" cy="33.6" r="6.8"/>
		</g>
		<g>
			<circle cx="580.3" cy="33.6" r="6.8"/>
		</g>
		<g>
			<circle cx="560.3" cy="33.6" r="6.8"/>
		</g>
		<g>
			<circle cx="540.3" cy="33.6" r="6.8"/>
		</g>
		<g>
			<circle cx="520.3" cy="33.6" r="6.8"/>
		</g>
		<g>
			<circle cx="500.3" cy="33.6" r="6.8"/>
		</g>
		<g>
			<circle cx="480.3" cy="33.6" r="6.8"/>
		</g>
		<g>
			<circle cx="460.3" cy="33.6" r="6.8"/>
		</g>
		<g>
			<circle cx="440.3" cy="33.6" r="6.8"/>
		</g>
		<g>
			<circle cx="420.3" cy="33.6" r="6.8"/>
		</g>
		<g>
			<circle cx="400.3" cy="33.6" r="6.8"/>
		</g>
		<g>
			<circle cx="380.3" cy="33.6" r="6.8"/>
		</g>
		<g>
			<circle cx="360.3" cy="33.6" r="6.8"/>
		</g>
		<g>
			<circle cx="340.3" cy="33.6" r="6.8"/>
		</g>
		<g>
			<circle cx="320.3" cy="33.6" r="6.8"/>
		</g>
		<g>
			<circle cx="300.3" cy="33.6" r="6.8"/>
		</g>
		<g>
			<circle cx="280.3" cy="33.6" r="6.8"/>
		</g>
		<g>
			<circle cx="260.3" cy="33.6" r="6.8"/>
		</g>
		<g>
			<circle cx="240.3" cy="33.6" r="6.8"/>
		</g>
		<g>
			<circle cx="220.3" cy="33.6" r="6.8"/>
		</g>
		<g>
			<circle cx="200.3" cy="33.6" r="6.8"/>
		</g>
		<g>
			<circle cx="180.3" cy="33.6" r="6.8"/>
		</g>
		<g>
			<circle cx="160.3" cy="33.6" r="6.8"/>
		</g>
		<g>
			<circle cx="140.3" cy="33.6" r="6.8"/>
		</g>
		<g>
			<circle cx="120.3" cy="33.6" r="6.8"/>
		</g>
		<g>
			<circle cx="100.3" cy="33.6" r="6.8"/>
		</g>
		<g>
			<circle cx="80.3" cy="33.6" r="6.8"/>
		</g>
		<g>
			<circle cx="60.3" cy="33.6" r="6.8"/>
		</g>
		<g>
			<circle cx="40.3" cy="33.6" r="6.8"/>
		</g>
		<g>
			<circle cx="20.3" cy="33.6" r="6.8"/>
		</g>
	</g>
	<g>
		<g>
			<circle cx="1120.3" cy="15.1" r="6.8"/>
		</g>
		<g>
			<circle cx="1100.3" cy="15.1" r="6.8"/>
		</g>
		<g>
			<circle cx="1080.3" cy="15.1" r="6.8"/>
		</g>
		<g>
			<circle cx="1060.3" cy="15.1" r="6.8"/>
		</g>
		<g>
			<circle cx="1040.3" cy="15.1" r="6.8"/>
		</g>
		<g>
			<circle cx="1020.3" cy="15.1" r="6.8"/>
		</g>
		<g>
			<circle cx="1000.3" cy="15.1" r="6.8"/>
		</g>
		<g>
			<circle cx="980.3" cy="15.1" r="6.8"/>
		</g>
		<g>
			<circle cx="960.3" cy="15.1" r="6.8"/>
		</g>
		<g>
			<circle cx="940.3" cy="15.1" r="6.8"/>
		</g>
		<g>
			<circle cx="920.3" cy="15.1" r="6.8"/>
		</g>
		<g>
			<circle cx="900.3" cy="15.1" r="6.8"/>
		</g>
		<g>
			<circle cx="880.3" cy="15.1" r="6.8"/>
		</g>
		<g>
			<circle cx="860.3" cy="15.1" r="6.8"/>
		</g>
		<g>
			<circle cx="840.3" cy="15.1" r="6.8"/>
		</g>
		<g>
			<circle cx="820.3" cy="15.1" r="6.8"/>
		</g>
		<g>
			<circle cx="800.3" cy="15.1" r="6.8"/>
		</g>
		<g>
			<circle cx="780.3" cy="15.1" r="6.8"/>
		</g>
		<g>
			<circle cx="760.3" cy="15.1" r="6.8"/>
		</g>
		<g>
			<circle cx="740.3" cy="15.1" r="6.8"/>
		</g>
		<g>
			<circle cx="720.3" cy="15.1" r="6.8"/>
		</g>
		<g>
			<circle cx="700.3" cy="15.1" r="6.8"/>
		</g>
		<g>
			<circle cx="680.3" cy="15.1" r="6.8"/>
		</g>
		<g>
			<circle cx="660.3" cy="15.1" r="6.8"/>
		</g>
		<g>
			<circle cx="640.3" cy="15.1" r="6.8"/>
		</g>
		<g>
			<circle cx="620.3" cy="15.1" r="6.8"/>
		</g>
		<g>
			<circle cx="600.3" cy="15.1" r="6.8"/>
		</g>
		<g>
			<circle cx="580.3" cy="15.1" r="6.8"/>
		</g>
		<g>
			<circle cx="560.3" cy="15.1" r="6.8"/>
		</g>
		<g>
			<circle cx="540.3" cy="15.1" r="6.8"/>
		</g>
		<g>
			<circle cx="520.3" cy="15.1" r="6.8"/>
		</g>
		<g>
			<circle cx="500.3" cy="15.1" r="6.8"/>
		</g>
		<g>
			<circle cx="480.3" cy="15.1" r="6.8"/>
		</g>
		<g>
			<circle cx="460.3" cy="15.1" r="6.8"/>
		</g>
		<g>
			<circle cx="440.3" cy="15.1" r="6.8"/>
		</g>
		<g>
			<circle cx="420.3" cy="15.1" r="6.8"/>
		</g>
		<g>
			<circle cx="400.3" cy="15.1" r="6.8"/>
		</g>
		<g>
			<circle cx="380.3" cy="15.1" r="6.8"/>
		</g>
		<g>
			<circle cx="360.3" cy="15.1" r="6.8"/>
		</g>
		<g>
			<circle cx="340.3" cy="15.1" r="6.8"/>
		</g>
		<g>
			<circle cx="320.3" cy="15.1" r="6.8"/>
		</g>
		<g>
			<circle cx="300.3" cy="15.1" r="6.8"/>
		</g>
		<g>
			<circle cx="280.3" cy="15.1" r="6.8"/>
		</g>
		<g>
			<circle cx="260.3" cy="15.1" r="6.8"/>
		</g>
		<g>
			<circle cx="240.3" cy="15.1" r="6.8"/>
		</g>
		<g>
			<circle cx="220.3" cy="15.1" r="6.8"/>
		</g>
		<g>
			<circle cx="200.3" cy="15.1" r="6.8"/>
		</g>
		<g>
			<circle cx="180.3" cy="15.1" r="6.8"/>
		</g>
		<g>
			<circle cx="160.3" cy="15.1" r="6.8"/>
		</g>
		<g>
			<circle cx="140.3" cy="15.1" r="6.8"/>
		</g>
		<g>
			<circle cx="120.3" cy="15.1" r="6.8"/>
		</g>
		<g>
			<circle cx="100.3" cy="15.1" r="6.8"/>
		</g>
		<g>
			<circle cx="80.3" cy="15.1" r="6.8"/>
		</g>
		<g>
			<circle cx="60.3" cy="15.1" r="6.8"/>
		</g>
		<g>
			<circle cx="40.3" cy="15.1" r="6.8"/>
		</g>
		<g>
			<circle cx="20.3" cy="15.1" r="6.8"/>
		</g>
	</g>
</g>
</svg>
